<mxfile host="app.diagrams.net" modified="2022-11-16T10:43:09.145Z" agent="5.0 (X11; Linux x86_64) AppleWebKit/537.36 (KHTML, like Gecko) Chrome/107.0.0.0 Safari/537.36" etag="JaoarzktsMVbAcurAZiA" version="20.5.3" type="github">
  <diagram id="sp87BE_KRfN6M-lFv6xn" name="Page-1">
    <mxGraphModel dx="964" dy="548" grid="1" gridSize="10" guides="1" tooltips="1" connect="1" arrows="1" fold="1" page="1" pageScale="1" pageWidth="1169" pageHeight="827" math="0" shadow="0">
      <root>
        <mxCell id="0" />
        <mxCell id="1" parent="0" />
        <mxCell id="yjeWw_eDEs8p_PzeUuAK-1" value="Dashboard" style="swimlane;fontStyle=0;childLayout=stackLayout;horizontal=1;startSize=30;horizontalStack=0;resizeParent=1;resizeParentMax=0;resizeLast=0;collapsible=1;marginBottom=0;whiteSpace=wrap;html=1;" vertex="1" parent="1">
          <mxGeometry x="60" y="70" width="140" height="150" as="geometry" />
        </mxCell>
        <mxCell id="yjeWw_eDEs8p_PzeUuAK-2" value="CREATE TEMPLATE" style="text;strokeColor=none;fillColor=none;align=left;verticalAlign=middle;spacingLeft=4;spacingRight=4;overflow=hidden;points=[[0,0.5],[1,0.5]];portConstraint=eastwest;rotatable=0;whiteSpace=wrap;html=1;" vertex="1" parent="yjeWw_eDEs8p_PzeUuAK-1">
          <mxGeometry y="30" width="140" height="30" as="geometry" />
        </mxCell>
        <mxCell id="yjeWw_eDEs8p_PzeUuAK-3" value="TEMPLATES" style="text;strokeColor=default;fillColor=none;align=left;verticalAlign=middle;spacingLeft=4;spacingRight=4;overflow=hidden;points=[[0,0.5],[1,0.5]];portConstraint=eastwest;rotatable=0;whiteSpace=wrap;html=1;" vertex="1" parent="yjeWw_eDEs8p_PzeUuAK-1">
          <mxGeometry y="60" width="140" height="30" as="geometry" />
        </mxCell>
        <mxCell id="yjeWw_eDEs8p_PzeUuAK-4" value="FOLDERS" style="text;strokeColor=default;fillColor=none;align=left;verticalAlign=middle;spacingLeft=4;spacingRight=4;overflow=hidden;points=[[0,0.5],[1,0.5]];portConstraint=eastwest;rotatable=0;whiteSpace=wrap;html=1;" vertex="1" parent="yjeWw_eDEs8p_PzeUuAK-1">
          <mxGeometry y="90" width="140" height="30" as="geometry" />
        </mxCell>
        <mxCell id="yjeWw_eDEs8p_PzeUuAK-6" value="SHARED FOLDERS" style="text;strokeColor=none;fillColor=none;align=left;verticalAlign=middle;spacingLeft=4;spacingRight=4;overflow=hidden;points=[[0,0.5],[1,0.5]];portConstraint=eastwest;rotatable=0;whiteSpace=wrap;html=1;" vertex="1" parent="yjeWw_eDEs8p_PzeUuAK-1">
          <mxGeometry y="120" width="140" height="30" as="geometry" />
        </mxCell>
        <mxCell id="yjeWw_eDEs8p_PzeUuAK-7" style="edgeStyle=orthogonalEdgeStyle;rounded=0;orthogonalLoop=1;jettySize=auto;html=1;exitX=0.5;exitY=1;exitDx=0;exitDy=0;entryX=0.5;entryY=0;entryDx=0;entryDy=0;" edge="1" parent="1" source="yjeWw_eDEs8p_PzeUuAK-5" target="yjeWw_eDEs8p_PzeUuAK-1">
          <mxGeometry relative="1" as="geometry" />
        </mxCell>
        <mxCell id="yjeWw_eDEs8p_PzeUuAK-5" value="&lt;b&gt;TEMPLATE PAGE&lt;/b&gt;" style="rounded=0;whiteSpace=wrap;html=1;" vertex="1" parent="1">
          <mxGeometry x="70" width="120" height="30" as="geometry" />
        </mxCell>
        <mxCell id="yjeWw_eDEs8p_PzeUuAK-12" value="&lt;b&gt;TEMPLATES&lt;/b&gt;" style="swimlane;fontStyle=0;childLayout=stackLayout;horizontal=1;startSize=30;horizontalStack=0;resizeParent=1;resizeParentMax=0;resizeLast=0;collapsible=1;marginBottom=0;whiteSpace=wrap;html=1;strokeColor=default;" vertex="1" parent="1">
          <mxGeometry x="245" width="140" height="180" as="geometry" />
        </mxCell>
        <mxCell id="yjeWw_eDEs8p_PzeUuAK-13" value="My Templates" style="text;strokeColor=none;fillColor=none;align=left;verticalAlign=middle;spacingLeft=4;spacingRight=4;overflow=hidden;points=[[0,0.5],[1,0.5]];portConstraint=eastwest;rotatable=0;whiteSpace=wrap;html=1;" vertex="1" parent="yjeWw_eDEs8p_PzeUuAK-12">
          <mxGeometry y="30" width="140" height="30" as="geometry" />
        </mxCell>
        <mxCell id="yjeWw_eDEs8p_PzeUuAK-14" value="Shared With Me" style="text;strokeColor=default;fillColor=none;align=left;verticalAlign=middle;spacingLeft=4;spacingRight=4;overflow=hidden;points=[[0,0.5],[1,0.5]];portConstraint=eastwest;rotatable=0;whiteSpace=wrap;html=1;" vertex="1" parent="yjeWw_eDEs8p_PzeUuAK-12">
          <mxGeometry y="60" width="140" height="30" as="geometry" />
        </mxCell>
        <mxCell id="yjeWw_eDEs8p_PzeUuAK-15" value="All Templates" style="text;strokeColor=none;fillColor=none;align=left;verticalAlign=middle;spacingLeft=4;spacingRight=4;overflow=hidden;points=[[0,0.5],[1,0.5]];portConstraint=eastwest;rotatable=0;whiteSpace=wrap;html=1;" vertex="1" parent="yjeWw_eDEs8p_PzeUuAK-12">
          <mxGeometry y="90" width="140" height="30" as="geometry" />
        </mxCell>
        <mxCell id="yjeWw_eDEs8p_PzeUuAK-17" value="Favourites" style="text;strokeColor=default;fillColor=none;align=left;verticalAlign=middle;spacingLeft=4;spacingRight=4;overflow=hidden;points=[[0,0.5],[1,0.5]];portConstraint=eastwest;rotatable=0;whiteSpace=wrap;html=1;" vertex="1" parent="yjeWw_eDEs8p_PzeUuAK-12">
          <mxGeometry y="120" width="140" height="30" as="geometry" />
        </mxCell>
        <mxCell id="yjeWw_eDEs8p_PzeUuAK-18" value="Deleted" style="text;strokeColor=none;fillColor=none;align=left;verticalAlign=middle;spacingLeft=4;spacingRight=4;overflow=hidden;points=[[0,0.5],[1,0.5]];portConstraint=eastwest;rotatable=0;whiteSpace=wrap;html=1;" vertex="1" parent="yjeWw_eDEs8p_PzeUuAK-12">
          <mxGeometry y="150" width="140" height="30" as="geometry" />
        </mxCell>
        <mxCell id="yjeWw_eDEs8p_PzeUuAK-20" value="My Templates" style="swimlane;fontStyle=0;childLayout=stackLayout;horizontal=1;startSize=30;horizontalStack=0;resizeParent=1;resizeParentMax=0;resizeLast=0;collapsible=1;marginBottom=0;whiteSpace=wrap;html=1;strokeColor=default;fillColor=none;" vertex="1" parent="1">
          <mxGeometry x="825" y="200" width="80" height="210" as="geometry" />
        </mxCell>
        <mxCell id="yjeWw_eDEs8p_PzeUuAK-21" value="Name" style="text;strokeColor=none;fillColor=none;align=left;verticalAlign=middle;spacingLeft=4;spacingRight=4;overflow=hidden;points=[[0,0.5],[1,0.5]];portConstraint=eastwest;rotatable=0;whiteSpace=wrap;html=1;" vertex="1" parent="yjeWw_eDEs8p_PzeUuAK-20">
          <mxGeometry y="30" width="80" height="30" as="geometry" />
        </mxCell>
        <mxCell id="yjeWw_eDEs8p_PzeUuAK-22" value="Owner" style="text;strokeColor=default;fillColor=none;align=left;verticalAlign=middle;spacingLeft=4;spacingRight=4;overflow=hidden;points=[[0,0.5],[1,0.5]];portConstraint=eastwest;rotatable=0;whiteSpace=wrap;html=1;" vertex="1" parent="yjeWw_eDEs8p_PzeUuAK-20">
          <mxGeometry y="60" width="80" height="30" as="geometry" />
        </mxCell>
        <mxCell id="yjeWw_eDEs8p_PzeUuAK-23" value="Created Date" style="text;strokeColor=none;fillColor=none;align=left;verticalAlign=middle;spacingLeft=4;spacingRight=4;overflow=hidden;points=[[0,0.5],[1,0.5]];portConstraint=eastwest;rotatable=0;whiteSpace=wrap;html=1;" vertex="1" parent="yjeWw_eDEs8p_PzeUuAK-20">
          <mxGeometry y="90" width="80" height="30" as="geometry" />
        </mxCell>
        <mxCell id="yjeWw_eDEs8p_PzeUuAK-28" value="Last Change" style="text;strokeColor=default;fillColor=none;align=left;verticalAlign=middle;spacingLeft=4;spacingRight=4;overflow=hidden;points=[[0,0.5],[1,0.5]];portConstraint=eastwest;rotatable=0;whiteSpace=wrap;html=1;" vertex="1" parent="yjeWw_eDEs8p_PzeUuAK-20">
          <mxGeometry y="120" width="80" height="30" as="geometry" />
        </mxCell>
        <mxCell id="yjeWw_eDEs8p_PzeUuAK-29" value="Folder" style="text;strokeColor=none;fillColor=none;align=left;verticalAlign=middle;spacingLeft=4;spacingRight=4;overflow=hidden;points=[[0,0.5],[1,0.5]];portConstraint=eastwest;rotatable=0;whiteSpace=wrap;html=1;" vertex="1" parent="yjeWw_eDEs8p_PzeUuAK-20">
          <mxGeometry y="150" width="80" height="30" as="geometry" />
        </mxCell>
        <mxCell id="yjeWw_eDEs8p_PzeUuAK-30" value="Use" style="text;strokeColor=default;fillColor=none;align=left;verticalAlign=middle;spacingLeft=4;spacingRight=4;overflow=hidden;points=[[0,0.5],[1,0.5]];portConstraint=eastwest;rotatable=0;whiteSpace=wrap;html=1;" vertex="1" parent="yjeWw_eDEs8p_PzeUuAK-20">
          <mxGeometry y="180" width="80" height="30" as="geometry" />
        </mxCell>
        <mxCell id="yjeWw_eDEs8p_PzeUuAK-24" value="Use" style="swimlane;fontStyle=0;childLayout=stackLayout;horizontal=1;startSize=30;horizontalStack=0;resizeParent=1;resizeParentMax=0;resizeLast=0;collapsible=1;marginBottom=0;whiteSpace=wrap;html=1;strokeColor=default;fillColor=none;" vertex="1" parent="1">
          <mxGeometry x="315" y="460" width="70" height="240" as="geometry" />
        </mxCell>
        <mxCell id="yjeWw_eDEs8p_PzeUuAK-25" value="Edit" style="text;strokeColor=none;fillColor=none;align=left;verticalAlign=middle;spacingLeft=4;spacingRight=4;overflow=hidden;points=[[0,0.5],[1,0.5]];portConstraint=eastwest;rotatable=0;whiteSpace=wrap;html=1;" vertex="1" parent="yjeWw_eDEs8p_PzeUuAK-24">
          <mxGeometry y="30" width="70" height="30" as="geometry" />
        </mxCell>
        <mxCell id="yjeWw_eDEs8p_PzeUuAK-26" value="Move" style="text;strokeColor=default;fillColor=none;align=left;verticalAlign=middle;spacingLeft=4;spacingRight=4;overflow=hidden;points=[[0,0.5],[1,0.5]];portConstraint=eastwest;rotatable=0;whiteSpace=wrap;html=1;" vertex="1" parent="yjeWw_eDEs8p_PzeUuAK-24">
          <mxGeometry y="60" width="70" height="30" as="geometry" />
        </mxCell>
        <mxCell id="yjeWw_eDEs8p_PzeUuAK-27" value="Shared to Folders" style="text;strokeColor=default;fillColor=none;align=left;verticalAlign=middle;spacingLeft=4;spacingRight=4;overflow=hidden;points=[[0,0.5],[1,0.5]];portConstraint=eastwest;rotatable=0;whiteSpace=wrap;html=1;" vertex="1" parent="yjeWw_eDEs8p_PzeUuAK-24">
          <mxGeometry y="90" width="70" height="30" as="geometry" />
        </mxCell>
        <mxCell id="yjeWw_eDEs8p_PzeUuAK-31" value="Copy" style="text;strokeColor=none;fillColor=none;align=left;verticalAlign=middle;spacingLeft=4;spacingRight=4;overflow=hidden;points=[[0,0.5],[1,0.5]];portConstraint=eastwest;rotatable=0;whiteSpace=wrap;html=1;" vertex="1" parent="yjeWw_eDEs8p_PzeUuAK-24">
          <mxGeometry y="120" width="70" height="30" as="geometry" />
        </mxCell>
        <mxCell id="yjeWw_eDEs8p_PzeUuAK-32" value="Delete" style="text;strokeColor=default;fillColor=none;align=left;verticalAlign=middle;spacingLeft=4;spacingRight=4;overflow=hidden;points=[[0,0.5],[1,0.5]];portConstraint=eastwest;rotatable=0;whiteSpace=wrap;html=1;" vertex="1" parent="yjeWw_eDEs8p_PzeUuAK-24">
          <mxGeometry y="150" width="70" height="30" as="geometry" />
        </mxCell>
        <mxCell id="yjeWw_eDEs8p_PzeUuAK-33" value="Download" style="text;strokeColor=default;fillColor=none;align=left;verticalAlign=middle;spacingLeft=4;spacingRight=4;overflow=hidden;points=[[0,0.5],[1,0.5]];portConstraint=eastwest;rotatable=0;whiteSpace=wrap;html=1;" vertex="1" parent="yjeWw_eDEs8p_PzeUuAK-24">
          <mxGeometry y="180" width="70" height="30" as="geometry" />
        </mxCell>
        <mxCell id="yjeWw_eDEs8p_PzeUuAK-34" value="Share with Users" style="text;strokeColor=none;fillColor=none;align=left;verticalAlign=middle;spacingLeft=4;spacingRight=4;overflow=hidden;points=[[0,0.5],[1,0.5]];portConstraint=eastwest;rotatable=0;whiteSpace=wrap;html=1;" vertex="1" parent="yjeWw_eDEs8p_PzeUuAK-24">
          <mxGeometry y="210" width="70" height="30" as="geometry" />
        </mxCell>
        <mxCell id="yjeWw_eDEs8p_PzeUuAK-36" value="Edit" style="swimlane;fontStyle=0;childLayout=stackLayout;horizontal=1;startSize=30;horizontalStack=0;resizeParent=1;resizeParentMax=0;resizeLast=0;collapsible=1;marginBottom=0;whiteSpace=wrap;html=1;strokeColor=default;fillColor=none;" vertex="1" parent="1">
          <mxGeometry x="405" y="520" width="131" height="180" as="geometry" />
        </mxCell>
        <mxCell id="yjeWw_eDEs8p_PzeUuAK-37" value="Template Name" style="text;strokeColor=none;fillColor=none;align=left;verticalAlign=middle;spacingLeft=4;spacingRight=4;overflow=hidden;points=[[0,0.5],[1,0.5]];portConstraint=eastwest;rotatable=0;whiteSpace=wrap;html=1;" vertex="1" parent="yjeWw_eDEs8p_PzeUuAK-36">
          <mxGeometry y="30" width="131" height="30" as="geometry" />
        </mxCell>
        <mxCell id="yjeWw_eDEs8p_PzeUuAK-38" value="Template Description" style="text;strokeColor=default;fillColor=none;align=left;verticalAlign=middle;spacingLeft=4;spacingRight=4;overflow=hidden;points=[[0,0.5],[1,0.5]];portConstraint=eastwest;rotatable=0;whiteSpace=wrap;html=1;" vertex="1" parent="yjeWw_eDEs8p_PzeUuAK-36">
          <mxGeometry y="60" width="131" height="30" as="geometry" />
        </mxCell>
        <mxCell id="yjeWw_eDEs8p_PzeUuAK-39" value="Add Documents (Upload)&amp;nbsp;&lt;br&gt;" style="text;strokeColor=none;fillColor=none;align=left;verticalAlign=middle;spacingLeft=4;spacingRight=4;overflow=hidden;points=[[0,0.5],[1,0.5]];portConstraint=eastwest;rotatable=0;whiteSpace=wrap;html=1;" vertex="1" parent="yjeWw_eDEs8p_PzeUuAK-36">
          <mxGeometry y="90" width="131" height="30" as="geometry" />
        </mxCell>
        <mxCell id="yjeWw_eDEs8p_PzeUuAK-40" value="Add Recipients" style="text;strokeColor=default;fillColor=none;align=left;verticalAlign=middle;spacingLeft=4;spacingRight=4;overflow=hidden;points=[[0,0.5],[1,0.5]];portConstraint=eastwest;rotatable=0;whiteSpace=wrap;html=1;" vertex="1" parent="yjeWw_eDEs8p_PzeUuAK-36">
          <mxGeometry y="120" width="131" height="30" as="geometry" />
        </mxCell>
        <mxCell id="yjeWw_eDEs8p_PzeUuAK-41" value="Add Message" style="text;strokeColor=none;fillColor=none;align=left;verticalAlign=middle;spacingLeft=4;spacingRight=4;overflow=hidden;points=[[0,0.5],[1,0.5]];portConstraint=eastwest;rotatable=0;whiteSpace=wrap;html=1;" vertex="1" parent="yjeWw_eDEs8p_PzeUuAK-36">
          <mxGeometry y="150" width="131" height="30" as="geometry" />
        </mxCell>
        <mxCell id="yjeWw_eDEs8p_PzeUuAK-43" value="&lt;b&gt;Add Documents&lt;/b&gt;" style="swimlane;fontStyle=0;childLayout=stackLayout;horizontal=1;startSize=30;horizontalStack=0;resizeParent=1;resizeParentMax=0;resizeLast=0;collapsible=1;marginBottom=0;whiteSpace=wrap;html=1;strokeColor=default;fillColor=none;" vertex="1" parent="1">
          <mxGeometry x="585" y="510" width="90" height="90" as="geometry" />
        </mxCell>
        <mxCell id="yjeWw_eDEs8p_PzeUuAK-44" value="Drop your files" style="text;strokeColor=none;fillColor=none;align=left;verticalAlign=middle;spacingLeft=4;spacingRight=4;overflow=hidden;points=[[0,0.5],[1,0.5]];portConstraint=eastwest;rotatable=0;whiteSpace=wrap;html=1;" vertex="1" parent="yjeWw_eDEs8p_PzeUuAK-43">
          <mxGeometry y="30" width="90" height="30" as="geometry" />
        </mxCell>
        <mxCell id="yjeWw_eDEs8p_PzeUuAK-45" value="Upload" style="text;strokeColor=none;fillColor=none;align=left;verticalAlign=middle;spacingLeft=4;spacingRight=4;overflow=hidden;points=[[0,0.5],[1,0.5]];portConstraint=eastwest;rotatable=0;whiteSpace=wrap;html=1;" vertex="1" parent="yjeWw_eDEs8p_PzeUuAK-43">
          <mxGeometry y="60" width="90" height="30" as="geometry" />
        </mxCell>
        <mxCell id="yjeWw_eDEs8p_PzeUuAK-47" value="&lt;b&gt;Add Recipients&lt;/b&gt;" style="swimlane;fontStyle=0;childLayout=stackLayout;horizontal=1;startSize=30;horizontalStack=0;resizeParent=1;resizeParentMax=0;resizeLast=0;collapsible=1;marginBottom=0;whiteSpace=wrap;html=1;strokeColor=default;fillColor=none;" vertex="1" parent="1">
          <mxGeometry x="720.5" y="510" width="90" height="210" as="geometry" />
        </mxCell>
        <mxCell id="yjeWw_eDEs8p_PzeUuAK-48" value="Role" style="text;strokeColor=none;fillColor=none;align=left;verticalAlign=middle;spacingLeft=4;spacingRight=4;overflow=hidden;points=[[0,0.5],[1,0.5]];portConstraint=eastwest;rotatable=0;whiteSpace=wrap;html=1;" vertex="1" parent="yjeWw_eDEs8p_PzeUuAK-47">
          <mxGeometry y="30" width="90" height="30" as="geometry" />
        </mxCell>
        <mxCell id="yjeWw_eDEs8p_PzeUuAK-49" value="Name" style="text;strokeColor=default;fillColor=none;align=left;verticalAlign=middle;spacingLeft=4;spacingRight=4;overflow=hidden;points=[[0,0.5],[1,0.5]];portConstraint=eastwest;rotatable=0;whiteSpace=wrap;html=1;" vertex="1" parent="yjeWw_eDEs8p_PzeUuAK-47">
          <mxGeometry y="60" width="90" height="30" as="geometry" />
        </mxCell>
        <mxCell id="yjeWw_eDEs8p_PzeUuAK-50" value="Email" style="text;strokeColor=none;fillColor=none;align=left;verticalAlign=middle;spacingLeft=4;spacingRight=4;overflow=hidden;points=[[0,0.5],[1,0.5]];portConstraint=eastwest;rotatable=0;whiteSpace=wrap;html=1;" vertex="1" parent="yjeWw_eDEs8p_PzeUuAK-47">
          <mxGeometry y="90" width="90" height="30" as="geometry" />
        </mxCell>
        <mxCell id="yjeWw_eDEs8p_PzeUuAK-51" value="Needs to sign" style="text;strokeColor=default;fillColor=none;align=left;verticalAlign=middle;spacingLeft=4;spacingRight=4;overflow=hidden;points=[[0,0.5],[1,0.5]];portConstraint=eastwest;rotatable=0;whiteSpace=wrap;html=1;" vertex="1" parent="yjeWw_eDEs8p_PzeUuAK-47">
          <mxGeometry y="120" width="90" height="30" as="geometry" />
        </mxCell>
        <mxCell id="yjeWw_eDEs8p_PzeUuAK-52" value="Customise" style="text;strokeColor=default;fillColor=none;align=left;verticalAlign=middle;spacingLeft=4;spacingRight=4;overflow=hidden;points=[[0,0.5],[1,0.5]];portConstraint=eastwest;rotatable=0;whiteSpace=wrap;html=1;" vertex="1" parent="yjeWw_eDEs8p_PzeUuAK-47">
          <mxGeometry y="150" width="90" height="30" as="geometry" />
        </mxCell>
        <mxCell id="yjeWw_eDEs8p_PzeUuAK-71" style="edgeStyle=orthogonalEdgeStyle;rounded=0;orthogonalLoop=1;jettySize=auto;html=1;exitX=1;exitY=0.5;exitDx=0;exitDy=0;entryX=1.005;entryY=0.074;entryDx=0;entryDy=0;entryPerimeter=0;" edge="1" parent="yjeWw_eDEs8p_PzeUuAK-47" source="yjeWw_eDEs8p_PzeUuAK-53" target="yjeWw_eDEs8p_PzeUuAK-47">
          <mxGeometry relative="1" as="geometry" />
        </mxCell>
        <mxCell id="yjeWw_eDEs8p_PzeUuAK-53" value="&lt;b&gt;Add Recipients (Dublicate)&lt;/b&gt;" style="text;strokeColor=none;fillColor=none;align=left;verticalAlign=middle;spacingLeft=4;spacingRight=4;overflow=hidden;points=[[0,0.5],[1,0.5]];portConstraint=eastwest;rotatable=0;whiteSpace=wrap;html=1;" vertex="1" parent="yjeWw_eDEs8p_PzeUuAK-47">
          <mxGeometry y="180" width="90" height="30" as="geometry" />
        </mxCell>
        <mxCell id="yjeWw_eDEs8p_PzeUuAK-56" value="&lt;b&gt;Add message&amp;nbsp;&lt;/b&gt;" style="swimlane;fontStyle=0;childLayout=stackLayout;horizontal=1;startSize=30;horizontalStack=0;resizeParent=1;resizeParentMax=0;resizeLast=0;collapsible=1;marginBottom=0;whiteSpace=wrap;html=1;strokeColor=default;fillColor=none;" vertex="1" parent="1">
          <mxGeometry x="605" y="697" width="90" height="120" as="geometry" />
        </mxCell>
        <mxCell id="yjeWw_eDEs8p_PzeUuAK-57" value="Email Subject" style="text;strokeColor=none;fillColor=none;align=left;verticalAlign=middle;spacingLeft=4;spacingRight=4;overflow=hidden;points=[[0,0.5],[1,0.5]];portConstraint=eastwest;rotatable=0;whiteSpace=wrap;html=1;" vertex="1" parent="yjeWw_eDEs8p_PzeUuAK-56">
          <mxGeometry y="30" width="90" height="30" as="geometry" />
        </mxCell>
        <mxCell id="yjeWw_eDEs8p_PzeUuAK-58" value="Email Message" style="text;strokeColor=default;fillColor=none;align=left;verticalAlign=middle;spacingLeft=4;spacingRight=4;overflow=hidden;points=[[0,0.5],[1,0.5]];portConstraint=eastwest;rotatable=0;whiteSpace=wrap;html=1;" vertex="1" parent="yjeWw_eDEs8p_PzeUuAK-56">
          <mxGeometry y="60" width="90" height="30" as="geometry" />
        </mxCell>
        <mxCell id="yjeWw_eDEs8p_PzeUuAK-59" value="Frequency of reminders" style="text;strokeColor=none;fillColor=none;align=left;verticalAlign=middle;spacingLeft=4;spacingRight=4;overflow=hidden;points=[[0,0.5],[1,0.5]];portConstraint=eastwest;rotatable=0;whiteSpace=wrap;html=1;" vertex="1" parent="yjeWw_eDEs8p_PzeUuAK-56">
          <mxGeometry y="90" width="90" height="30" as="geometry" />
        </mxCell>
        <mxCell id="yjeWw_eDEs8p_PzeUuAK-72" style="edgeStyle=orthogonalEdgeStyle;rounded=0;orthogonalLoop=1;jettySize=auto;html=1;exitX=1;exitY=0.5;exitDx=0;exitDy=0;entryX=0.5;entryY=0;entryDx=0;entryDy=0;" edge="1" parent="1" source="yjeWw_eDEs8p_PzeUuAK-13" target="yjeWw_eDEs8p_PzeUuAK-20">
          <mxGeometry relative="1" as="geometry" />
        </mxCell>
        <mxCell id="yjeWw_eDEs8p_PzeUuAK-74" style="edgeStyle=orthogonalEdgeStyle;rounded=0;orthogonalLoop=1;jettySize=auto;html=1;exitX=0;exitY=0.5;exitDx=0;exitDy=0;entryX=1;entryY=0.5;entryDx=0;entryDy=0;" edge="1" parent="1" source="yjeWw_eDEs8p_PzeUuAK-27" target="yjeWw_eDEs8p_PzeUuAK-6">
          <mxGeometry relative="1" as="geometry" />
        </mxCell>
        <mxCell id="yjeWw_eDEs8p_PzeUuAK-75" value="Favourites" style="swimlane;fontStyle=0;childLayout=stackLayout;horizontal=1;startSize=30;horizontalStack=0;resizeParent=1;resizeParentMax=0;resizeLast=0;collapsible=1;marginBottom=0;whiteSpace=wrap;html=1;strokeColor=default;fillColor=none;" vertex="1" parent="1">
          <mxGeometry x="525" y="200" width="80" height="210" as="geometry" />
        </mxCell>
        <mxCell id="yjeWw_eDEs8p_PzeUuAK-76" value="Name" style="text;strokeColor=none;fillColor=none;align=left;verticalAlign=middle;spacingLeft=4;spacingRight=4;overflow=hidden;points=[[0,0.5],[1,0.5]];portConstraint=eastwest;rotatable=0;whiteSpace=wrap;html=1;" vertex="1" parent="yjeWw_eDEs8p_PzeUuAK-75">
          <mxGeometry y="30" width="80" height="30" as="geometry" />
        </mxCell>
        <mxCell id="yjeWw_eDEs8p_PzeUuAK-77" value="Owner" style="text;strokeColor=default;fillColor=none;align=left;verticalAlign=middle;spacingLeft=4;spacingRight=4;overflow=hidden;points=[[0,0.5],[1,0.5]];portConstraint=eastwest;rotatable=0;whiteSpace=wrap;html=1;" vertex="1" parent="yjeWw_eDEs8p_PzeUuAK-75">
          <mxGeometry y="60" width="80" height="30" as="geometry" />
        </mxCell>
        <mxCell id="yjeWw_eDEs8p_PzeUuAK-78" value="Created Date" style="text;strokeColor=none;fillColor=none;align=left;verticalAlign=middle;spacingLeft=4;spacingRight=4;overflow=hidden;points=[[0,0.5],[1,0.5]];portConstraint=eastwest;rotatable=0;whiteSpace=wrap;html=1;" vertex="1" parent="yjeWw_eDEs8p_PzeUuAK-75">
          <mxGeometry y="90" width="80" height="30" as="geometry" />
        </mxCell>
        <mxCell id="yjeWw_eDEs8p_PzeUuAK-79" value="Last Change" style="text;strokeColor=default;fillColor=none;align=left;verticalAlign=middle;spacingLeft=4;spacingRight=4;overflow=hidden;points=[[0,0.5],[1,0.5]];portConstraint=eastwest;rotatable=0;whiteSpace=wrap;html=1;" vertex="1" parent="yjeWw_eDEs8p_PzeUuAK-75">
          <mxGeometry y="120" width="80" height="30" as="geometry" />
        </mxCell>
        <mxCell id="yjeWw_eDEs8p_PzeUuAK-80" value="Folder" style="text;strokeColor=none;fillColor=none;align=left;verticalAlign=middle;spacingLeft=4;spacingRight=4;overflow=hidden;points=[[0,0.5],[1,0.5]];portConstraint=eastwest;rotatable=0;whiteSpace=wrap;html=1;" vertex="1" parent="yjeWw_eDEs8p_PzeUuAK-75">
          <mxGeometry y="150" width="80" height="30" as="geometry" />
        </mxCell>
        <mxCell id="yjeWw_eDEs8p_PzeUuAK-81" value="Use" style="text;strokeColor=default;fillColor=none;align=left;verticalAlign=middle;spacingLeft=4;spacingRight=4;overflow=hidden;points=[[0,0.5],[1,0.5]];portConstraint=eastwest;rotatable=0;whiteSpace=wrap;html=1;" vertex="1" parent="yjeWw_eDEs8p_PzeUuAK-75">
          <mxGeometry y="180" width="80" height="30" as="geometry" />
        </mxCell>
        <mxCell id="yjeWw_eDEs8p_PzeUuAK-82" value="All Templates" style="swimlane;fontStyle=0;childLayout=stackLayout;horizontal=1;startSize=30;horizontalStack=0;resizeParent=1;resizeParentMax=0;resizeLast=0;collapsible=1;marginBottom=0;whiteSpace=wrap;html=1;strokeColor=default;fillColor=none;" vertex="1" parent="1">
          <mxGeometry x="625" y="200" width="80" height="210" as="geometry" />
        </mxCell>
        <mxCell id="yjeWw_eDEs8p_PzeUuAK-83" value="Name" style="text;strokeColor=none;fillColor=none;align=left;verticalAlign=middle;spacingLeft=4;spacingRight=4;overflow=hidden;points=[[0,0.5],[1,0.5]];portConstraint=eastwest;rotatable=0;whiteSpace=wrap;html=1;" vertex="1" parent="yjeWw_eDEs8p_PzeUuAK-82">
          <mxGeometry y="30" width="80" height="30" as="geometry" />
        </mxCell>
        <mxCell id="yjeWw_eDEs8p_PzeUuAK-84" value="Owner" style="text;strokeColor=default;fillColor=none;align=left;verticalAlign=middle;spacingLeft=4;spacingRight=4;overflow=hidden;points=[[0,0.5],[1,0.5]];portConstraint=eastwest;rotatable=0;whiteSpace=wrap;html=1;" vertex="1" parent="yjeWw_eDEs8p_PzeUuAK-82">
          <mxGeometry y="60" width="80" height="30" as="geometry" />
        </mxCell>
        <mxCell id="yjeWw_eDEs8p_PzeUuAK-85" value="Created Date" style="text;strokeColor=none;fillColor=none;align=left;verticalAlign=middle;spacingLeft=4;spacingRight=4;overflow=hidden;points=[[0,0.5],[1,0.5]];portConstraint=eastwest;rotatable=0;whiteSpace=wrap;html=1;" vertex="1" parent="yjeWw_eDEs8p_PzeUuAK-82">
          <mxGeometry y="90" width="80" height="30" as="geometry" />
        </mxCell>
        <mxCell id="yjeWw_eDEs8p_PzeUuAK-86" value="Last Change" style="text;strokeColor=default;fillColor=none;align=left;verticalAlign=middle;spacingLeft=4;spacingRight=4;overflow=hidden;points=[[0,0.5],[1,0.5]];portConstraint=eastwest;rotatable=0;whiteSpace=wrap;html=1;" vertex="1" parent="yjeWw_eDEs8p_PzeUuAK-82">
          <mxGeometry y="120" width="80" height="30" as="geometry" />
        </mxCell>
        <mxCell id="yjeWw_eDEs8p_PzeUuAK-87" value="Folder" style="text;strokeColor=none;fillColor=none;align=left;verticalAlign=middle;spacingLeft=4;spacingRight=4;overflow=hidden;points=[[0,0.5],[1,0.5]];portConstraint=eastwest;rotatable=0;whiteSpace=wrap;html=1;" vertex="1" parent="yjeWw_eDEs8p_PzeUuAK-82">
          <mxGeometry y="150" width="80" height="30" as="geometry" />
        </mxCell>
        <mxCell id="yjeWw_eDEs8p_PzeUuAK-88" value="Use" style="text;strokeColor=default;fillColor=none;align=left;verticalAlign=middle;spacingLeft=4;spacingRight=4;overflow=hidden;points=[[0,0.5],[1,0.5]];portConstraint=eastwest;rotatable=0;whiteSpace=wrap;html=1;" vertex="1" parent="yjeWw_eDEs8p_PzeUuAK-82">
          <mxGeometry y="180" width="80" height="30" as="geometry" />
        </mxCell>
        <mxCell id="yjeWw_eDEs8p_PzeUuAK-89" value="Deleted" style="swimlane;fontStyle=0;childLayout=stackLayout;horizontal=1;startSize=30;horizontalStack=0;resizeParent=1;resizeParentMax=0;resizeLast=0;collapsible=1;marginBottom=0;whiteSpace=wrap;html=1;strokeColor=default;fillColor=none;" vertex="1" parent="1">
          <mxGeometry x="425" y="200" width="80" height="210" as="geometry" />
        </mxCell>
        <mxCell id="yjeWw_eDEs8p_PzeUuAK-90" value="Name" style="text;strokeColor=none;fillColor=none;align=left;verticalAlign=middle;spacingLeft=4;spacingRight=4;overflow=hidden;points=[[0,0.5],[1,0.5]];portConstraint=eastwest;rotatable=0;whiteSpace=wrap;html=1;" vertex="1" parent="yjeWw_eDEs8p_PzeUuAK-89">
          <mxGeometry y="30" width="80" height="30" as="geometry" />
        </mxCell>
        <mxCell id="yjeWw_eDEs8p_PzeUuAK-91" value="Owner" style="text;strokeColor=default;fillColor=none;align=left;verticalAlign=middle;spacingLeft=4;spacingRight=4;overflow=hidden;points=[[0,0.5],[1,0.5]];portConstraint=eastwest;rotatable=0;whiteSpace=wrap;html=1;" vertex="1" parent="yjeWw_eDEs8p_PzeUuAK-89">
          <mxGeometry y="60" width="80" height="30" as="geometry" />
        </mxCell>
        <mxCell id="yjeWw_eDEs8p_PzeUuAK-92" value="Created Date" style="text;strokeColor=none;fillColor=none;align=left;verticalAlign=middle;spacingLeft=4;spacingRight=4;overflow=hidden;points=[[0,0.5],[1,0.5]];portConstraint=eastwest;rotatable=0;whiteSpace=wrap;html=1;" vertex="1" parent="yjeWw_eDEs8p_PzeUuAK-89">
          <mxGeometry y="90" width="80" height="30" as="geometry" />
        </mxCell>
        <mxCell id="yjeWw_eDEs8p_PzeUuAK-93" value="Last Change" style="text;strokeColor=default;fillColor=none;align=left;verticalAlign=middle;spacingLeft=4;spacingRight=4;overflow=hidden;points=[[0,0.5],[1,0.5]];portConstraint=eastwest;rotatable=0;whiteSpace=wrap;html=1;" vertex="1" parent="yjeWw_eDEs8p_PzeUuAK-89">
          <mxGeometry y="120" width="80" height="30" as="geometry" />
        </mxCell>
        <mxCell id="yjeWw_eDEs8p_PzeUuAK-94" value="Folder" style="text;strokeColor=none;fillColor=none;align=left;verticalAlign=middle;spacingLeft=4;spacingRight=4;overflow=hidden;points=[[0,0.5],[1,0.5]];portConstraint=eastwest;rotatable=0;whiteSpace=wrap;html=1;" vertex="1" parent="yjeWw_eDEs8p_PzeUuAK-89">
          <mxGeometry y="150" width="80" height="30" as="geometry" />
        </mxCell>
        <mxCell id="yjeWw_eDEs8p_PzeUuAK-95" value="Use" style="text;strokeColor=default;fillColor=none;align=left;verticalAlign=middle;spacingLeft=4;spacingRight=4;overflow=hidden;points=[[0,0.5],[1,0.5]];portConstraint=eastwest;rotatable=0;whiteSpace=wrap;html=1;" vertex="1" parent="yjeWw_eDEs8p_PzeUuAK-89">
          <mxGeometry y="180" width="80" height="30" as="geometry" />
        </mxCell>
        <mxCell id="yjeWw_eDEs8p_PzeUuAK-97" style="edgeStyle=orthogonalEdgeStyle;rounded=0;orthogonalLoop=1;jettySize=auto;html=1;exitX=1;exitY=0.5;exitDx=0;exitDy=0;" edge="1" parent="1" source="yjeWw_eDEs8p_PzeUuAK-18" target="yjeWw_eDEs8p_PzeUuAK-89">
          <mxGeometry relative="1" as="geometry" />
        </mxCell>
        <mxCell id="yjeWw_eDEs8p_PzeUuAK-98" style="edgeStyle=orthogonalEdgeStyle;rounded=0;orthogonalLoop=1;jettySize=auto;html=1;exitX=1;exitY=0.5;exitDx=0;exitDy=0;" edge="1" parent="1" source="yjeWw_eDEs8p_PzeUuAK-17" target="yjeWw_eDEs8p_PzeUuAK-75">
          <mxGeometry relative="1" as="geometry" />
        </mxCell>
        <mxCell id="yjeWw_eDEs8p_PzeUuAK-99" style="edgeStyle=orthogonalEdgeStyle;rounded=0;orthogonalLoop=1;jettySize=auto;html=1;exitX=1;exitY=0.5;exitDx=0;exitDy=0;" edge="1" parent="1" source="yjeWw_eDEs8p_PzeUuAK-15" target="yjeWw_eDEs8p_PzeUuAK-82">
          <mxGeometry relative="1" as="geometry" />
        </mxCell>
        <mxCell id="yjeWw_eDEs8p_PzeUuAK-100" value="Shared with Me" style="swimlane;fontStyle=0;childLayout=stackLayout;horizontal=1;startSize=30;horizontalStack=0;resizeParent=1;resizeParentMax=0;resizeLast=0;collapsible=1;marginBottom=0;whiteSpace=wrap;html=1;strokeColor=default;fillColor=none;" vertex="1" parent="1">
          <mxGeometry x="725" y="200" width="81" height="210" as="geometry" />
        </mxCell>
        <mxCell id="yjeWw_eDEs8p_PzeUuAK-101" value="Name" style="text;strokeColor=none;fillColor=none;align=left;verticalAlign=middle;spacingLeft=4;spacingRight=4;overflow=hidden;points=[[0,0.5],[1,0.5]];portConstraint=eastwest;rotatable=0;whiteSpace=wrap;html=1;" vertex="1" parent="yjeWw_eDEs8p_PzeUuAK-100">
          <mxGeometry y="30" width="81" height="30" as="geometry" />
        </mxCell>
        <mxCell id="yjeWw_eDEs8p_PzeUuAK-102" value="Owner" style="text;strokeColor=default;fillColor=none;align=left;verticalAlign=middle;spacingLeft=4;spacingRight=4;overflow=hidden;points=[[0,0.5],[1,0.5]];portConstraint=eastwest;rotatable=0;whiteSpace=wrap;html=1;" vertex="1" parent="yjeWw_eDEs8p_PzeUuAK-100">
          <mxGeometry y="60" width="81" height="30" as="geometry" />
        </mxCell>
        <mxCell id="yjeWw_eDEs8p_PzeUuAK-103" value="Created Date" style="text;strokeColor=none;fillColor=none;align=left;verticalAlign=middle;spacingLeft=4;spacingRight=4;overflow=hidden;points=[[0,0.5],[1,0.5]];portConstraint=eastwest;rotatable=0;whiteSpace=wrap;html=1;" vertex="1" parent="yjeWw_eDEs8p_PzeUuAK-100">
          <mxGeometry y="90" width="81" height="30" as="geometry" />
        </mxCell>
        <mxCell id="yjeWw_eDEs8p_PzeUuAK-104" value="Last Change" style="text;strokeColor=default;fillColor=none;align=left;verticalAlign=middle;spacingLeft=4;spacingRight=4;overflow=hidden;points=[[0,0.5],[1,0.5]];portConstraint=eastwest;rotatable=0;whiteSpace=wrap;html=1;" vertex="1" parent="yjeWw_eDEs8p_PzeUuAK-100">
          <mxGeometry y="120" width="81" height="30" as="geometry" />
        </mxCell>
        <mxCell id="yjeWw_eDEs8p_PzeUuAK-105" value="Folder" style="text;strokeColor=none;fillColor=none;align=left;verticalAlign=middle;spacingLeft=4;spacingRight=4;overflow=hidden;points=[[0,0.5],[1,0.5]];portConstraint=eastwest;rotatable=0;whiteSpace=wrap;html=1;" vertex="1" parent="yjeWw_eDEs8p_PzeUuAK-100">
          <mxGeometry y="150" width="81" height="30" as="geometry" />
        </mxCell>
        <mxCell id="yjeWw_eDEs8p_PzeUuAK-106" value="Use" style="text;strokeColor=default;fillColor=none;align=left;verticalAlign=middle;spacingLeft=4;spacingRight=4;overflow=hidden;points=[[0,0.5],[1,0.5]];portConstraint=eastwest;rotatable=0;whiteSpace=wrap;html=1;" vertex="1" parent="yjeWw_eDEs8p_PzeUuAK-100">
          <mxGeometry y="180" width="81" height="30" as="geometry" />
        </mxCell>
        <mxCell id="yjeWw_eDEs8p_PzeUuAK-107" style="edgeStyle=orthogonalEdgeStyle;rounded=0;orthogonalLoop=1;jettySize=auto;html=1;exitX=1;exitY=0.5;exitDx=0;exitDy=0;" edge="1" parent="1" source="yjeWw_eDEs8p_PzeUuAK-14" target="yjeWw_eDEs8p_PzeUuAK-100">
          <mxGeometry relative="1" as="geometry" />
        </mxCell>
        <mxCell id="yjeWw_eDEs8p_PzeUuAK-108" style="edgeStyle=orthogonalEdgeStyle;rounded=0;orthogonalLoop=1;jettySize=auto;html=1;exitX=0;exitY=0.5;exitDx=0;exitDy=0;entryX=0;entryY=0.5;entryDx=0;entryDy=0;" edge="1" parent="1" source="yjeWw_eDEs8p_PzeUuAK-32" target="yjeWw_eDEs8p_PzeUuAK-18">
          <mxGeometry relative="1" as="geometry" />
        </mxCell>
        <mxCell id="yjeWw_eDEs8p_PzeUuAK-109" style="edgeStyle=orthogonalEdgeStyle;rounded=0;orthogonalLoop=1;jettySize=auto;html=1;exitX=0;exitY=0.5;exitDx=0;exitDy=0;entryX=0;entryY=0;entryDx=0;entryDy=0;" edge="1" parent="1" source="yjeWw_eDEs8p_PzeUuAK-95" target="yjeWw_eDEs8p_PzeUuAK-24">
          <mxGeometry relative="1" as="geometry">
            <Array as="points">
              <mxPoint x="425" y="410" />
              <mxPoint x="315" y="410" />
            </Array>
          </mxGeometry>
        </mxCell>
        <mxCell id="yjeWw_eDEs8p_PzeUuAK-110" style="edgeStyle=orthogonalEdgeStyle;rounded=0;orthogonalLoop=1;jettySize=auto;html=1;exitX=0;exitY=0.5;exitDx=0;exitDy=0;entryX=0.25;entryY=0;entryDx=0;entryDy=0;" edge="1" parent="1" source="yjeWw_eDEs8p_PzeUuAK-81" target="yjeWw_eDEs8p_PzeUuAK-24">
          <mxGeometry relative="1" as="geometry">
            <Array as="points">
              <mxPoint x="525" y="420" />
              <mxPoint x="332" y="420" />
            </Array>
          </mxGeometry>
        </mxCell>
        <mxCell id="yjeWw_eDEs8p_PzeUuAK-111" style="edgeStyle=orthogonalEdgeStyle;rounded=0;orthogonalLoop=1;jettySize=auto;html=1;exitX=0;exitY=0.5;exitDx=0;exitDy=0;" edge="1" parent="1" source="yjeWw_eDEs8p_PzeUuAK-88" target="yjeWw_eDEs8p_PzeUuAK-24">
          <mxGeometry relative="1" as="geometry">
            <Array as="points">
              <mxPoint x="625" y="430" />
              <mxPoint x="350" y="430" />
            </Array>
          </mxGeometry>
        </mxCell>
        <mxCell id="yjeWw_eDEs8p_PzeUuAK-112" style="edgeStyle=orthogonalEdgeStyle;rounded=0;orthogonalLoop=1;jettySize=auto;html=1;exitX=0;exitY=0.5;exitDx=0;exitDy=0;entryX=0.75;entryY=0;entryDx=0;entryDy=0;" edge="1" parent="1" source="yjeWw_eDEs8p_PzeUuAK-106" target="yjeWw_eDEs8p_PzeUuAK-24">
          <mxGeometry relative="1" as="geometry">
            <Array as="points">
              <mxPoint x="725" y="440" />
              <mxPoint x="368" y="440" />
            </Array>
          </mxGeometry>
        </mxCell>
        <mxCell id="yjeWw_eDEs8p_PzeUuAK-113" style="edgeStyle=orthogonalEdgeStyle;rounded=0;orthogonalLoop=1;jettySize=auto;html=1;exitX=0;exitY=0.5;exitDx=0;exitDy=0;entryX=1;entryY=0;entryDx=0;entryDy=0;" edge="1" parent="1" source="yjeWw_eDEs8p_PzeUuAK-30" target="yjeWw_eDEs8p_PzeUuAK-24">
          <mxGeometry relative="1" as="geometry">
            <Array as="points">
              <mxPoint x="825" y="450" />
              <mxPoint x="385" y="450" />
            </Array>
          </mxGeometry>
        </mxCell>
        <mxCell id="yjeWw_eDEs8p_PzeUuAK-115" style="edgeStyle=orthogonalEdgeStyle;rounded=0;orthogonalLoop=1;jettySize=auto;html=1;exitX=1;exitY=0.5;exitDx=0;exitDy=0;entryX=0.5;entryY=0;entryDx=0;entryDy=0;" edge="1" parent="1" source="yjeWw_eDEs8p_PzeUuAK-25" target="yjeWw_eDEs8p_PzeUuAK-36">
          <mxGeometry relative="1" as="geometry">
            <Array as="points">
              <mxPoint x="471" y="505" />
            </Array>
          </mxGeometry>
        </mxCell>
        <mxCell id="yjeWw_eDEs8p_PzeUuAK-118" style="edgeStyle=orthogonalEdgeStyle;rounded=0;orthogonalLoop=1;jettySize=auto;html=1;exitX=1;exitY=0.5;exitDx=0;exitDy=0;entryX=-0.009;entryY=0.08;entryDx=0;entryDy=0;entryPerimeter=0;" edge="1" parent="1" source="yjeWw_eDEs8p_PzeUuAK-2" target="yjeWw_eDEs8p_PzeUuAK-12">
          <mxGeometry relative="1" as="geometry" />
        </mxCell>
        <mxCell id="yjeWw_eDEs8p_PzeUuAK-143" style="edgeStyle=orthogonalEdgeStyle;rounded=0;orthogonalLoop=1;jettySize=auto;html=1;exitX=1;exitY=0.5;exitDx=0;exitDy=0;entryX=0.5;entryY=0;entryDx=0;entryDy=0;" edge="1" parent="1" source="yjeWw_eDEs8p_PzeUuAK-39" target="yjeWw_eDEs8p_PzeUuAK-43">
          <mxGeometry relative="1" as="geometry" />
        </mxCell>
        <mxCell id="yjeWw_eDEs8p_PzeUuAK-145" style="edgeStyle=orthogonalEdgeStyle;rounded=0;orthogonalLoop=1;jettySize=auto;html=1;exitX=1;exitY=0.5;exitDx=0;exitDy=0;entryX=0.5;entryY=0;entryDx=0;entryDy=0;" edge="1" parent="1" source="yjeWw_eDEs8p_PzeUuAK-40" target="yjeWw_eDEs8p_PzeUuAK-47">
          <mxGeometry relative="1" as="geometry">
            <Array as="points">
              <mxPoint x="700" y="655" />
              <mxPoint x="700" y="480" />
              <mxPoint x="766" y="480" />
            </Array>
          </mxGeometry>
        </mxCell>
        <mxCell id="yjeWw_eDEs8p_PzeUuAK-146" style="edgeStyle=orthogonalEdgeStyle;rounded=0;orthogonalLoop=1;jettySize=auto;html=1;exitX=1;exitY=0.5;exitDx=0;exitDy=0;entryX=0.5;entryY=0;entryDx=0;entryDy=0;" edge="1" parent="1" source="yjeWw_eDEs8p_PzeUuAK-41" target="yjeWw_eDEs8p_PzeUuAK-56">
          <mxGeometry relative="1" as="geometry" />
        </mxCell>
      </root>
    </mxGraphModel>
  </diagram>
</mxfile>
